<svg width="1024" height="1024" viewBox="0 0 1024 1024" xmlns="http://www.w3.org/2000/svg">
  <defs>
    <!-- Gradient for background shape -->
    <linearGradient id="bgGradient" x1="0%" y1="0%" x2="100%" y2="100%">
      <stop offset="0%" style="stop-color:#1c71d8;stop-opacity:1" />
      <stop offset="100%" style="stop-color:#155bb8;stop-opacity:1" />
    </linearGradient>

    <!-- Gradient for resonance waves -->
    <linearGradient id="waveGradient1" x1="0%" y1="50%" x2="100%" y2="50%">
      <stop offset="0%" style="stop-color:#f6d32d;stop-opacity:1" />
      <stop offset="100%" style="stop-color:#f9f06b;stop-opacity:1" />
    </linearGradient>

    <linearGradient id="waveGradient2" x1="0%" y1="50%" x2="100%" y2="50%">
      <stop offset="0%" style="stop-color:#ffffff;stop-opacity:0.9" />
      <stop offset="100%" style="stop-color:#f6f5f4;stop-opacity:0.9" />
    </linearGradient>

    <linearGradient id="waveGradient3" x1="0%" y1="50%" x2="100%" y2="50%">
      <stop offset="0%" style="stop-color:#99c1f1;stop-opacity:1" />
      <stop offset="100%" style="stop-color:#62a0ea;stop-opacity:1" />
    </linearGradient>

    <!-- Gradient for center circle -->
    <radialGradient id="centerGradient">
      <stop offset="0%" style="stop-color:#ffffff;stop-opacity:1" />
      <stop offset="100%" style="stop-color:#f6f5f4;stop-opacity:1" />
    </radialGradient>
  </defs>

  <g transform="translate(64, 64) scale(0.875)">
    <!-- Rounded rectangle background with gradient -->
    <path fill="url(#bgGradient)" d="M0 96C0 42.98 42.98 0 96 0H928C981.02 0 1024 42.98 1024 96V928C1024 981.02 981.02 1024 928 1024H96C42.98 1024 0 981.02 0 928Z"/>

    <!-- Outer resonance waves (yellow/gold) -->
    <path fill="url(#waveGradient1)" fill-rule="evenodd" d="M340.8183 802.4999C338.6597 802.4999 336.5068 801.6691 334.8574 800.019C241.48 706.2777 148.1027 612.5364 54.7253 518.7951C51.4386 515.4998 51.4308 510.1549 54.7079 506.8499C148.0853 412.5663 241.4627 318.2828 334.8401 223.9992C339.4154 219.3814 347.2544 221.4675 348.9503 227.7543C349.7374 230.672 348.9142 233.7897 346.7907 235.9328C255.3888 328.2178 163.9868 420.5027 72.5848 512.7877C163.981 604.542 255.3772 696.2963 346.7734 788.0506C351.3665 792.6487 349.279 800.5142 343.0159 802.2085C342.2993 802.4024 341.5604 802.5003 340.8183 802.4999Z"/>
    <path fill="url(#waveGradient1)" fill-rule="evenodd" d="M684.4498 801.9999C677.9634 802.0085 673.9002 794.9765 677.136 789.3424C677.5031 788.7032 677.9521 788.115 678.4717 787.5928C769.8716 695.4659 861.2714 603.339 952.6713 511.212C861.2772 419.6149 769.8831 328.0177 678.489 236.4205C673.9005 231.8239 675.9975 223.9728 682.2636 222.2884C685.1718 221.5067 688.2752 222.3393 690.4047 224.4725C783.7799 318.0552 877.1552 411.6379 970.5304 505.2207C973.8175 508.5092 973.8233 513.8452 970.5478 517.1512C877.1725 611.2695 783.7973 705.3877 690.4221 799.5059C688.844 801.104 686.6931 802.0021 684.4498 801.9999Z"/>

    <!-- Middle resonance waves (white) -->
    <path fill="url(#waveGradient2)" fill-rule="evenodd" d="M664.9462 715.9999C660.3817 716.006 657.5224 711.0593 659.7994 707.096C660.0577 706.6464 660.3737 706.2326 660.7393 705.8653C725.0578 641.0588 789.3762 576.2523 853.6946 511.4457C789.3803 447.0119 725.0659 382.578 660.7515 318.1441C657.5226 314.9106 658.9982 309.3878 663.4077 308.2029C665.4542 307.653 667.6381 308.2387 669.1366 309.7393C734.8451 375.5699 800.5537 441.4005 866.2621 507.2311C868.5753 509.5444 868.5794 513.298 866.2744 515.6236C800.5658 581.831 734.8574 648.0382 669.1489 714.2455C668.0384 715.3697 666.5248 716.0015 664.9462 715.9999Z"/>
    <path fill="url(#waveGradient2)" fill-rule="evenodd" d="M363.0538 715.9999C367.6183 716.006 370.4776 711.0593 368.2006 707.096C367.9423 706.6464 367.6263 706.2326 367.2607 705.8653C302.9422 641.0588 238.6238 576.2523 174.3054 511.4457C238.6197 447.0119 302.9341 382.578 367.2485 318.1441C370.4774 314.9106 369.0018 309.3878 364.5923 308.2029C362.5458 307.653 360.3619 308.2387 358.8634 309.7393C293.1549 375.5699 227.4463 441.4005 161.7379 507.2311C159.4247 509.5444 159.4206 513.298 161.7256 515.6236C227.4342 581.831 293.1426 648.0382 358.8511 714.2455C359.9616 715.3697 361.4752 716.0015 363.0538 715.9999Z"/>

    <!-- Inner resonance waves (light blue) -->
    <path fill="url(#waveGradient3)" fill-rule="evenodd" d="M635.0685 651.4999C631.9454 651.5041 629.989 648.1214 631.547 645.4112C631.7237 645.1038 631.9399 644.8208 632.19 644.5697C676.1974 600.2534 720.2048 555.9372 764.2121 511.621C720.2076 467.5596 676.203 423.4982 632.1984 379.4368C629.9891 377.2256 630.9988 373.449 634.0158 372.6387C635.416 372.2627 636.9103 372.6632 637.9356 373.6894C682.894 418.7059 727.8525 463.7224 772.8109 508.7389C774.3936 510.3208 774.3964 512.8876 772.8193 514.4779C727.8608 559.7521 682.9024 605.0261 637.944 650.3002C637.1842 651.069 636.1485 651.501 635.0685 651.4999Z"/>
    <path fill="url(#waveGradient3)" fill-rule="evenodd" d="M401.9315 651.4999C405.0546 651.5041 407.011 648.1214 405.453 645.4112C405.2763 645.1038 405.0601 644.8208 404.81 644.5697C360.8026 600.2534 316.7952 555.9372 272.7879 511.621C316.7924 467.5596 360.797 423.4982 404.8016 379.4368C407.0109 377.2256 406.0012 373.449 402.9842 372.6387C401.584 372.2627 400.0897 372.6632 399.0644 373.6894C354.106 418.7059 309.1475 463.7224 264.1891 508.7389C262.6064 510.3208 262.6036 512.8876 264.1807 514.4779C309.1392 559.7521 354.0976 605.0261 399.056 650.3002C399.8158 651.069 400.8515 651.501 401.9315 651.4999Z"/>

    <!-- Center circle with gradient -->
    <circle cx="512" cy="512" r="90" fill="url(#centerGradient)"/>
  </g>
</svg>
