<svg width="512" height="512" viewBox="0 0 512 512" fill="none" xmlns="http://www.w3.org/2000/svg">
  <!-- Gradients -->
  <defs>
    <linearGradient id="bgGradient" x1="0%" y1="0%" x2="100%" y2="100%">
      <stop offset="0%" style="stop-color:#3B82F6;stop-opacity:1" />
      <stop offset="100%" style="stop-color:#1D4ED8;stop-opacity:1" />
    </linearGradient>
    <linearGradient id="waveGradient1" x1="0%" y1="0%" x2="100%" y2="100%">
      <stop offset="0%" style="stop-color:#60A5FA;stop-opacity:1" />
      <stop offset="100%" style="stop-color:#3B82F6;stop-opacity:1" />
    </linearGradient>
    <linearGradient id="waveGradient2" x1="0%" y1="0%" x2="100%" y2="100%">
      <stop offset="0%" style="stop-color:#93C5FD;stop-opacity:1" />
      <stop offset="100%" style="stop-color:#60A5FA;stop-opacity:1" />
    </linearGradient>
    <linearGradient id="waveGradient3" x1="0%" y1="0%" x2="100%" y2="100%">
      <stop offset="0%" style="stop-color:#DBEAFE;stop-opacity:1" />
      <stop offset="100%" style="stop-color:#93C5FD;stop-opacity:1" />
    </linearGradient>
    <linearGradient id="centerGradient" x1="0%" y1="0%" x2="100%" y2="100%">
      <stop offset="0%" style="stop-color:#FFFFFF;stop-opacity:1" />
      <stop offset="100%" style="stop-color:#DBEAFE;stop-opacity:1" />
    </linearGradient>
  </defs>

  <!-- Background with rounded corners and gradient -->
  <rect width="512" height="512" rx="110" fill="url(#bgGradient)"/>

  <!-- Resonance waves - centered and modern with gradient fills -->
  <g transform="translate(256, 256)">
    <!-- Outer wave arcs - filled -->
    <path d="M -130 -35 Q -130 -165, 0 -165 Q 130 -165, 130 -35 L 130 -25 Q 130 -155, 0 -155 Q -130 -155, -130 -25 Z"
          fill="url(#waveGradient3)"
          opacity="0.6"/>

    <path d="M -130 35 Q -130 165, 0 165 Q 130 165, 130 35 L 130 25 Q 130 155, 0 155 Q -130 155, -130 25 Z"
          fill="url(#waveGradient3)"
          opacity="0.6"/>

    <!-- Middle wave arcs - filled -->
    <path d="M -90 -25 Q -90 -115, 0 -115 Q 90 -115, 90 -25 L 90 -18 Q 90 -108, 0 -108 Q -90 -108, -90 -18 Z"
          fill="url(#waveGradient2)"
          opacity="0.75"/>

    <path d="M -90 25 Q -90 115, 0 115 Q 90 115, 90 25 L 90 18 Q 90 108, 0 108 Q -90 108, -90 18 Z"
          fill="url(#waveGradient2)"
          opacity="0.75"/>

    <!-- Inner wave arcs - filled -->
    <path d="M -50 -15 Q -50 -70, 0 -70 Q 50 -70, 50 -15 L 50 -8 Q 50 -63, 0 -63 Q -50 -63, -50 -8 Z"
          fill="url(#waveGradient1)"
          opacity="0.85"/>

    <path d="M -50 15 Q -50 70, 0 70 Q 50 70, 50 15 L 50 8 Q 50 63, 0 63 Q -50 63, -50 8 Z"
          fill="url(#waveGradient1)"
          opacity="0.85"/>

    <!-- Center circle with gradient -->
    <circle cx="0" cy="0" r="24" fill="url(#centerGradient)" opacity="1"/>

    <!-- Inner glow for center -->
    <circle cx="0" cy="0" r="20" fill="#FFFFFF" opacity="0.8"/>
  </g>
</svg>
